<svg width="47" height="26" viewBox="0 0 47 26" fill="none" xmlns="http://www.w3.org/2000/svg">
<path opacity="0.56" d="M39.8159 12.991L34.6975 7.8619L37.2554 2.73459L45.5717 11.0684C46.6313 12.1302 46.6313 13.8518 45.5717 14.9136L35.3359 25.1709C34.2762 26.2328 32.5583 26.2328 31.4986 25.1709C30.439 24.1091 30.439 22.3875 31.4986 21.3257L39.8159 12.991Z" fill="#F9F9F9"/>
<path d="M31.5005 0.801009C32.5602 -0.26083 34.2786 -0.260385 35.3382 0.801455L37.2573 2.72453L14.8678 25.1609C13.8082 26.2227 12.0898 26.2223 11.0301 25.1604L9.11108 23.2373L31.5005 0.801009ZM21.9048 7.85273L18.0667 11.6989L12.9483 6.56979L6.55056 12.9809L11.6689 18.11L9.11108 23.2373L0.794716 14.9036C-0.264905 13.8417 -0.264905 12.1201 0.794716 11.0583L11.0301 0.801455C12.0898 -0.260385 13.8082 -0.26083 14.8678 0.801009L21.9048 7.85273Z" fill="#F9F9F9"/>
</svg>
