<svg width="300" height="300" viewBox="0 0 300 300" fill="none" xmlns="http://www.w3.org/2000/svg">
<rect width="300" height="300" rx="150" fill="black"/>
<path d="M114.81 147C114.81 138.6 114.09 131.76 112.65 126.48C111.27 121.2 109.32 117.12 106.8 114.24C104.34 111.36 101.43 109.38 98.07 108.3C94.71 107.22 91.08 106.68 87.18 106.68H80.88V188.67H87.18C91.26 188.67 94.98 188.04 98.34 186.78C101.76 185.46 104.7 183.27 107.16 180.21C109.62 177.09 111.51 172.83 112.83 167.43C114.15 162.03 114.81 155.22 114.81 147ZM145.41 147C145.41 157.14 144.33 165.84 142.17 173.1C140.01 180.3 136.98 186.3 133.08 191.1C129.24 195.9 124.77 199.68 119.67 202.44C114.57 205.2 109.08 207.15 103.2 208.29C97.32 209.43 91.26 210 85.02 210H51.36V85.26H82.86C90.84 85.26 98.55 86.1 105.99 87.78C113.49 89.4 120.18 92.43 126.06 96.87C132 101.25 136.71 107.49 140.19 115.59C143.67 123.63 145.41 134.1 145.41 147ZM212.75 210L179.9 109.65C180.32 112.35 180.77 115.62 181.25 119.46C181.79 123.24 182.3 127.47 182.78 132.15C183.26 136.77 183.65 141.69 183.95 146.91C184.25 152.13 184.4 157.47 184.4 162.93V210H159.29V85.26H196.1L227.96 185.07C227.3 181.29 226.61 176.79 225.89 171.57C225.23 166.29 224.66 160.41 224.18 153.93C223.7 147.45 223.46 140.49 223.46 133.05V85.26H248.57V210H212.75Z" fill="white"/>
</svg>
