<svg width="271" height="271" viewBox="0 0 271 271" fill="none" xmlns="http://www.w3.org/2000/svg">
<rect width="271" height="271" rx="135.5" fill="black"/>
<path d="M171.75 125C171.75 125.729 171.46 126.429 170.945 126.945C170.429 127.46 169.729 127.75 169 127.75H114C113.271 127.75 112.571 127.46 112.055 126.945C111.54 126.429 111.25 125.729 111.25 125C111.25 124.271 111.54 123.571 112.055 123.055C112.571 122.54 113.271 122.25 114 122.25H169C169.729 122.25 170.429 122.54 170.945 123.055C171.46 123.571 171.75 124.271 171.75 125ZM169 144.25H114C113.271 144.25 112.571 144.54 112.055 145.055C111.54 145.571 111.25 146.271 111.25 147C111.25 147.729 111.54 148.429 112.055 148.945C112.571 149.46 113.271 149.75 114 149.75H169C169.729 149.75 170.429 149.46 170.945 148.945C171.46 148.429 171.75 147.729 171.75 147C171.75 146.271 171.46 145.571 170.945 145.055C170.429 144.54 169.729 144.25 169 144.25ZM204.75 92V174.5C204.75 178.147 203.301 181.644 200.723 184.223C198.144 186.801 194.647 188.25 191 188.25H70C66.3628 188.25 62.8737 186.809 60.2967 184.242C57.7196 181.675 56.2645 178.192 56.25 174.555V108.5C56.25 107.771 56.5397 107.071 57.0555 106.555C57.5712 106.04 58.2707 105.75 59 105.75C59.7293 105.75 60.4288 106.04 60.9445 106.555C61.4603 107.071 61.75 107.771 61.75 108.5V174.5C61.75 176.688 62.6192 178.786 64.1664 180.334C65.7135 181.881 67.812 182.75 70 182.75C72.188 182.75 74.2865 181.881 75.8336 180.334C77.3808 178.786 78.25 176.688 78.25 174.5V92C78.25 89.812 79.1192 87.7135 80.6664 86.1664C82.2135 84.6192 84.312 83.75 86.5 83.75H196.5C198.688 83.75 200.786 84.6192 202.334 86.1664C203.881 87.7135 204.75 89.812 204.75 92ZM199.25 92C199.25 91.2707 198.96 90.5712 198.445 90.0555C197.929 89.5397 197.229 89.25 196.5 89.25H86.5C85.7707 89.25 85.0712 89.5397 84.5555 90.0555C84.0397 90.5712 83.75 91.2707 83.75 92V174.5C83.757 177.476 82.7913 180.373 81 182.75H191C193.188 182.75 195.286 181.881 196.834 180.334C198.381 178.786 199.25 176.688 199.25 174.5V92Z" fill="white"/>
</svg>
