<svg width="40" height="40" viewBox="0 0 188 228" fill="none" xmlns="http://www.w3.org/2000/svg">
<path d="M38.0859 166.086V178H12.5977V44.6992H38.0859V96.8477C42.4479 91.6393 46.9401 87.9284 51.5625 85.7148C56.25 83.4362 61.7513 82.2969 68.0664 82.2969C82.0638 82.2969 93.5872 87.3424 102.637 97.4336C110.645 106.288 114.648 117.909 114.648 132.297C114.648 148.117 109.863 160.487 100.293 169.406C91.8945 177.284 81.5755 181.223 69.3359 181.223C62.3698 181.223 56.4453 180.051 51.5625 177.707C46.6797 175.298 42.1875 171.424 38.0859 166.086ZM62.9883 103.781C55.1758 103.781 48.763 107.167 43.75 113.938C39.7786 119.276 37.793 125.461 37.793 132.492C37.793 141.151 40.2669 148.117 45.2148 153.391C49.8372 158.273 55.599 160.715 62.5 160.715C70.3776 160.715 76.6602 157.85 81.3477 152.121C85.5143 146.978 87.5977 140.435 87.5977 132.492C87.5977 124.81 85.4818 118.267 81.25 112.863C76.5625 106.809 70.4753 103.781 62.9883 103.781ZM152.637 59.6406H129.395V45.2852H182.422L159.18 74.7773C164.128 75.2982 168.457 77.0234 172.168 79.9531C178.027 84.5755 180.957 90.9557 180.957 99.0938C180.957 107.492 177.897 114.361 171.777 119.699C166.569 124.257 160.091 126.535 152.344 126.535C142.188 126.535 134.603 122.987 129.59 115.891C127.376 112.635 125.879 108.111 125.098 102.316L140.918 101.73C141.439 104.855 142.643 107.264 144.531 108.957C146.419 110.65 148.861 111.496 151.855 111.496C155.306 111.496 158.203 110.422 160.547 108.273C162.891 106.06 164.062 103.358 164.062 100.168C164.062 96.8477 162.923 94.1133 160.645 91.9648C158.366 89.8164 155.436 88.7422 151.855 88.7422C148.991 88.7422 146.419 89.4909 144.141 90.9883L134.082 83.0781L152.637 59.6406Z" fill="white"/>
</svg>
