<svg width="28" height="22" viewBox="0 0 28 22" fill="none" xmlns="http://www.w3.org/2000/svg">
<path fill-rule="evenodd" clip-rule="evenodd" d="M23.3331 0.333313C25.5423 0.333313 27.3331 2.12418 27.3331 4.33331V17.6666C27.3331 19.8758 25.5423 21.6666 23.3331 21.6666H4.6665C2.45736 21.6666 0.666504 19.8758 0.666504 17.6666V4.33331C0.666504 2.12418 2.45736 0.333313 4.6665 0.333313H23.3331ZM24.6665 7.83303H15.3333C14.597 7.83303 13.7922 7.27341 13.5359 6.58307L12.2055 2.99998H4.6665C3.93012 2.99998 3.33317 3.59694 3.33317 4.33331V17.6666C3.33317 18.403 3.93012 19 4.6665 19H23.3331C24.0695 19 24.6665 18.403 24.6665 17.6666V7.83303Z" fill="#798595"/>
</svg>
